<?xml version="1.0" encoding="UTF-8"?>
<svg width="12px" height="12px" viewBox="0 0 12 12" version="1.1" xmlns="http://www.w3.org/2000/svg" xmlns:xlink="http://www.w3.org/1999/xlink">
    <!-- Generator: Sketch 41.2 (35397) - http://www.bohemiancoding.com/sketch -->
    <title>Group</title>
    <desc>Created with Sketch.</desc>
    <defs></defs>
    <g id="Page-1" stroke="none" stroke-width="1" fill="none" fill-rule="evenodd">
        <g id="iPad-Landscape-Copy-4" transform="translate(-184.000000, -598.000000)" fill="#38424B">
            <g id="Group" transform="translate(184.000000, 598.000000)">
                <path d="M10.7196699,0.219669914 L0.219669914,10.7196699 C-0.0732233047,11.0125631 -0.0732233047,11.4874369 0.219669914,11.7803301 C0.512563133,12.0732233 0.987436867,12.0732233 1.28033009,11.7803301 L11.7803301,1.28033009 C12.0732233,0.987436867 12.0732233,0.512563133 11.7803301,0.219669914 C11.4874369,-0.0732233047 11.0125631,-0.0732233047 10.7196699,0.219669914 Z" id="Shape"></path>
                <path d="M11.7803301,10.7196699 L1.28033009,0.219669914 C0.987436867,-0.0732233047 0.512563133,-0.0732233047 0.219669914,0.219669914 C-0.0732233047,0.512563133 -0.0732233047,0.987436867 0.219669914,1.28033009 L10.7196699,11.7803301 C11.0125631,12.0732233 11.4874369,12.0732233 11.7803301,11.7803301 C12.0732233,11.4874369 12.0732233,11.0125631 11.7803301,10.7196699 Z" id="Shape"></path>
            </g>
        </g>
    </g>
</svg>