<?xml version="1.0" encoding="UTF-8" standalone="no"?>
<svg width="16px" height="16px" viewBox="0 0 16 16" version="1.1" xmlns="http://www.w3.org/2000/svg" xmlns:xlink="http://www.w3.org/1999/xlink">
    <!-- Generator: Sketch 44.1 (41455) - http://www.bohemiancoding.com/sketch -->
    <title>icon-add</title>
    <desc>Created with Sketch.</desc>
    <defs></defs>
    <g id="Page-1" stroke="none" stroke-width="1" fill="none" fill-rule="evenodd" opacity="0.221750453">
        <g id="Artboard" transform="translate(-1056.000000, -111.000000)" fill-rule="nonzero" fill="#E7E8E9">
            <g id="Select" transform="translate(766.000000, 34.000000)">
                <g id="icon-add" transform="translate(290.000000, 77.000000)">
                    <path d="M15,7 L9,7 L9,1 C9,0.4 8.6,0 8,0 C7.4,0 7,0.4 7,1 L7,7 L1,7 C0.4,7 0,7.4 0,8 C0,8.6 0.4,9 1,9 L7,9 L7,15 C7,15.6 7.4,16 8,16 C8.6,16 9,15.6 9,15 L9,9 L15,9 C15.6,9 16,8.6 16,8 C16,7.4 15.6,7 15,7 Z" id="Shape"></path>
                </g>
            </g>
        </g>
    </g>
</svg>