<?xml version="1.0" encoding="UTF-8" standalone="no"?>
<svg width="13px" height="13px" viewBox="0 0 13 13" version="1.1" xmlns="http://www.w3.org/2000/svg" xmlns:xlink="http://www.w3.org/1999/xlink">
    <!-- Generator: Sketch 44.1 (41455) - http://www.bohemiancoding.com/sketch -->
    <title>icon-close</title>
    <desc>Created with Sketch.</desc>
    <defs></defs>
    <g id="Page-1" stroke="none" stroke-width="1" fill="none" fill-rule="evenodd">
        <g id="Artboard" transform="translate(-713.000000, -607.000000)" fill-rule="nonzero" fill="#FFFFFF">
            <g id="icon-close" transform="translate(713.000000, 607.000000)">
                <path d="M12.7214286,0.278571429 C12.35,-0.0928571429 11.7928571,-0.0928571429 11.4214286,0.278571429 L6.5,5.2 L1.57857143,0.278571429 C1.20714286,-0.0928571429 0.65,-0.0928571429 0.278571429,0.278571429 C-0.0928571429,0.65 -0.0928571429,1.20714286 0.278571429,1.57857143 L5.2,6.5 L0.278571429,11.4214286 C-0.0928571429,11.7928571 -0.0928571429,12.35 0.278571429,12.7214286 C0.464285714,12.9071429 0.65,13 0.928571429,13 C1.20714286,13 1.39285714,12.9071429 1.57857143,12.7214286 L6.5,7.8 L11.4214286,12.7214286 C11.6071429,12.9071429 11.8857143,13 12.0714286,13 C12.2571429,13 12.5357143,12.9071429 12.7214286,12.7214286 C13.0928571,12.35 13.0928571,11.7928571 12.7214286,11.4214286 L7.8,6.5 L12.7214286,1.57857143 C13.0928571,1.20714286 13.0928571,0.65 12.7214286,0.278571429 Z" id="Shape"></path>
            </g>
        </g>
    </g>
</svg>